<?xml version="1.0" encoding="UTF-8"?>
<svg version="1.1" xmlns="http://www.w3.org/2000/svg" width="463" height="657">
<path d="M0 0 C5.33444385 2.89433061 10.51268006 5.8873875 15.55078125 9.28125 C16.14980255 9.68292389 16.74882385 10.08459778 17.36599731 10.4984436 C18.66563053 11.37023274 19.96424665 12.24353969 21.26193237 13.1182251 C24.90617109 15.57389519 28.55891616 18.01686304 32.2109375 20.4609375 C32.99365524 20.98509247 33.77637299 21.50924744 34.58280945 22.04928589 C43.24476521 27.8439157 51.95123576 33.57058651 60.65829468 39.29711914 C77.00380974 50.0475498 93.30964998 60.85494797 109.57785034 71.72198486 C125.31345284 82.23126108 141.10071654 92.66076895 156.91015625 103.05859375 C157.78442261 103.63379761 158.65868896 104.20900146 159.55944824 104.80163574 C161.14738447 105.84621187 162.73563284 106.89031383 164.32434082 107.93371582 C165.9020003 108.97136933 167.45238976 110.05116161 168.97981262 111.16143799 C171.59873876 112.75572917 173.68408593 113.60708314 176.5488739 114.57049561 C182.37557056 116.88718391 186.73011919 119.51304796 190 125 C193.90189615 137.36322317 192.39885077 151.94931595 192.18733811 164.72366047 C192.11537532 170.0476578 192.13745965 175.37137831 192.14640808 180.69573975 C192.1471287 189.63069312 192.07701727 198.56289718 191.9621582 207.49707031 C191.83015756 217.81596819 191.80047898 228.13120507 191.8276127 238.45082879 C191.85224519 248.3974849 191.81428693 258.34288415 191.74454308 268.28929901 C191.71542979 272.51416634 191.70635911 276.7383684 191.71320534 280.9633255 C191.71773584 285.93888117 191.66680395 290.91093003 191.57346535 295.88558197 C191.54780203 297.70747809 191.54060369 299.52974496 191.55350876 301.35177612 C191.63302456 315.08414978 191.63302456 315.08414978 187.62374496 319.78780174 C184.83169744 321.85005405 182.09354616 323.43792573 179 325 C177.33498533 326.09582885 175.68101868 327.20889063 174.04541016 328.34814453 C172.37837943 329.44569926 170.70953896 330.54050932 169.0390625 331.6328125 C168.12780609 332.23197479 167.21654968 332.83113708 166.27767944 333.44845581 C163.39509869 335.34315734 160.51017904 337.23425798 157.625 339.125 C153.84563393 341.605675 150.06724459 344.08783471 146.2890625 346.5703125 C144.87918564 347.49617912 144.87918564 347.49617912 143.44082642 348.44075012 C136.19267874 353.20470293 128.97309422 358.01038171 121.76080322 362.8283844 C115.80139491 366.80660012 109.82511104 370.75815771 103.8359375 374.69140625 C102.99108795 375.24638794 102.1462384 375.80136963 101.27578735 376.37316895 C99.5380537 377.51457022 97.80029085 378.65592703 96.0625 379.79724121 C83.2342733 388.22333979 70.4297135 396.67904034 57.7265625 405.29296875 C56.73602875 405.96417252 55.745495 406.63537628 54.72494507 407.32691956 C49.94658247 410.56681717 45.17364095 413.81434688 40.40771484 417.07250977 C38.68858078 418.24120149 36.96934791 419.4097479 35.25 420.578125 C34.07964706 421.38379158 34.07964706 421.38379158 32.88565063 422.20573425 C32.16541718 422.69375015 31.44518372 423.18176605 30.703125 423.68457031 C30.08083008 424.11006165 29.45853516 424.53555298 28.81738281 424.97393799 C27 426 27 426 23 427 C23 490.36 23 553.72 23 619 C18.56216475 617.52072158 14.7709651 616.02171335 10.6171875 613.98046875 C9.71345901 613.53902779 9.71345901 613.53902779 8.79147339 613.08866882 C7.49547227 612.45550852 6.20021506 611.82082366 4.90563965 611.18475342 C1.40245984 609.46433097 -2.10698907 607.75682861 -5.6171875 606.05078125 C-6.33084473 605.7038623 -7.04450195 605.35694336 -7.77978516 604.99951172 C-14.23071193 601.87205761 -20.73351346 598.86323122 -27.25 595.875 C-40.38250117 589.83827028 -53.35129109 583.48053918 -66.32592773 577.11315918 C-78.4874897 571.14743854 -90.68229735 565.29107563 -102.99145508 559.63574219 C-112.10584859 555.4404354 -121.15425367 551.11652783 -130.1875 546.75 C-131.22469177 546.24995453 -131.22469177 546.24995453 -132.28283691 545.73980713 C-134.22489765 544.8029175 -136.16546151 543.86300808 -138.10546875 542.921875 C-139.22074951 542.38143555 -140.33603027 541.84099609 -141.48510742 541.28417969 C-144 540 -144 540 -145 539 C-145.15749228 536.55039591 -145.25025652 534.12653035 -145.30194092 531.67384338 C-145.32184562 530.89756354 -145.34175032 530.12128369 -145.3622582 529.32148021 C-145.42753285 526.69952698 -145.48501458 524.07746815 -145.54199219 521.45532227 C-145.58588085 519.58292486 -145.62983793 517.71052907 -145.67385864 515.83813477 C-146.06410071 498.68008578 -146.29526826 481.5196169 -146.48106003 464.35826206 C-146.60898723 452.8231807 -146.78735593 441.29336577 -147.09179688 429.76147461 C-147.35736311 419.69964798 -147.52624136 409.64154541 -147.58105969 399.57628292 C-147.61324956 394.25149744 -147.6914332 388.93694641 -147.88527679 383.61538887 C-149.04772039 350.37457694 -149.04772039 350.37457694 -142.39328194 342.50251007 C-136.40351268 336.5380376 -129.02782014 332.90825648 -121.35827827 329.5536747 C-116.27049315 327.19986052 -111.8001087 324.08005081 -107.21484375 320.8828125 C-105.51935639 319.76095566 -103.82115162 318.64318468 -102.11914062 317.53125 C-85.70802639 306.74416049 -69.3305739 295.90863297 -53 285 C-37.52661406 274.66397596 -22.00935712 264.39666149 -6.46520996 254.16738892 C9.73204222 243.50773716 25.88557222 232.78441812 42 222 C38.29200435 217.82827021 33.78572299 215.05459595 29.14453125 212.0390625 C28.2637944 211.46118988 27.38305756 210.88331726 26.47563171 210.28793335 C24.58000381 209.0448596 22.68296544 207.80393462 20.78466797 206.56494141 C16.75906111 203.93741782 12.74019384 201.29967035 8.72103882 198.66229248 C6.68786279 197.3281678 4.65435339 195.99455105 2.62051392 194.66143799 C-5.7825678 189.15145332 -14.14881652 183.58820195 -22.5 178 C-37.43817835 168.01187378 -52.4408643 158.12243945 -67.453125 148.24609375 C-76.36060161 142.38471326 -85.25576136 136.50642612 -94.12080383 130.58103943 C-99.10879373 127.25069651 -104.1143346 123.94806594 -109.12882996 120.65777588 C-112.85716686 118.20990913 -116.57998045 115.75371698 -120.30224609 113.29663086 C-122.21396373 112.03752951 -124.12810476 110.78210131 -126.04443359 109.5300293 C-128.85117144 107.69496343 -131.64898342 105.84696924 -134.4453125 103.99609375 C-135.30754425 103.43675644 -136.169776 102.87741913 -137.05813599 102.3011322 C-137.84090912 101.77951004 -138.62368225 101.25788788 -139.43017578 100.72045898 C-140.12200958 100.26589828 -140.81384338 99.81133759 -141.52664185 99.34300232 C-142.25595413 98.67821617 -142.25595413 98.67821617 -143 98 C-143 97.01 -143 96.02 -143 95 C-141.60307312 93.6930542 -141.60307312 93.6930542 -139.6081543 92.36230469 C-138.85881622 91.85523987 -138.10947815 91.34817505 -137.33743286 90.82574463 C-136.5080722 90.27996765 -135.67871155 89.73419067 -134.82421875 89.171875 C-133.96553192 88.59532166 -133.10684509 88.01876831 -132.22213745 87.42474365 C-129.38391266 85.52298993 -126.53594242 83.63640842 -123.6875 81.75 C-121.70579483 80.42718702 -119.72459811 79.10361203 -117.74389648 77.77929688 C-111.83956282 73.83725331 -105.9219497 69.91551599 -100 66 C-99.18640015 65.46173584 -98.37280029 64.92347168 -97.5345459 64.36889648 C-89.02431798 58.74063267 -80.49473947 53.14224326 -71.95649719 47.55659485 C-62.95667458 41.6668365 -53.97590272 35.74815531 -44.99533081 29.82910156 C-42.23370789 28.00914053 -39.47150369 26.19006461 -36.70922852 24.37109375 C-24.44390055 16.29059498 -12.2128193 8.15962744 0 0 Z " fill="#EF5315" transform="translate(209,0)"/>
<path d="M0 0 C0.33 0 0.66 0 1 0 C1 63.36 1 126.72 1 192 C-3.43783525 190.52072158 -7.2290349 189.02171335 -11.3828125 186.98046875 C-11.98529816 186.68617477 -12.58778381 186.3918808 -13.20852661 186.08866882 C-14.50452773 185.45550852 -15.79978494 184.82082366 -17.09436035 184.18475342 C-20.59754016 182.46433097 -24.10698907 180.75682861 -27.6171875 179.05078125 C-28.33084473 178.7038623 -29.04450195 178.35694336 -29.77978516 177.99951172 C-36.23071193 174.87205761 -42.73351346 171.86323122 -49.25 168.875 C-62.38250117 162.83827028 -75.35129109 156.48053918 -88.32592773 150.11315918 C-100.48656361 144.14789282 -112.67928069 138.28913562 -124.98925781 132.63793945 C-138.7602519 126.30315725 -152.37525967 119.64199165 -166 113 C-163.78887835 110.10781683 -161.82322478 107.58357748 -158.75 105.60546875 C-158.14027344 105.20650391 -157.53054687 104.80753906 -156.90234375 104.39648438 C-156.27457031 103.99751953 -155.64679688 103.59855469 -155 103.1875 C-153.77064451 102.38961377 -152.5414849 101.59142568 -151.3125 100.79296875 C-150.64178467 100.36048828 -149.97106934 99.92800781 -149.2800293 99.48242188 C-144.48959432 96.36779277 -139.75072463 93.17471116 -135 90 C-132.81658298 88.54400577 -130.63298635 87.08828085 -128.44921875 85.6328125 C-127.33543822 84.89031598 -126.22166878 84.14780282 -125.10791016 83.40527344 C-112.86621094 75.24414062 -100.62451172 67.08300781 -88.3828125 58.921875 C-87.55370361 58.36910889 -86.72459473 57.81634277 -85.87036133 57.24682617 C-84.09686084 56.06454759 -82.32325762 54.8824231 -80.54956055 53.70043945 C-75.76373406 50.51086914 -70.97980944 47.31850698 -66.19921875 44.12109375 C-55.33161792 36.85788795 -44.44416871 29.62654277 -33.52734375 22.4375 C-32.02858955 21.45046837 -32.02858955 21.45046837 -30.4995575 20.4434967 C-25.45541596 17.12227844 -20.4099695 13.80305963 -15.36303711 10.48608398 C-13.49982734 9.26026895 -11.63662703 8.03443954 -9.7734375 6.80859375 C-8.9018248 6.23653198 -8.0302121 5.66447021 -7.13218689 5.07507324 C-6.33752518 4.55199585 -5.54286346 4.02891846 -4.72412109 3.48999023 C-4.02612396 3.03132065 -3.32812683 2.57265106 -2.60897827 2.1000824 C-1.03513197 1.0966721 -1.03513197 1.0966721 0 0 Z " fill="#E14B1C" transform="translate(231,427)"/>
</svg>
